<svg width="1286" height="1024" viewBox="0 0 1286 1024" fill="none" xmlns="http://www.w3.org/2000/svg">
<path d="M859.121 300.564L834.576 462.622L382.344 477.88L385.523 412.39L422.701 353.943L474.659 326.8L515.474 318.062L859.121 300.564Z" fill="#08E9B3"/>
<path d="M859.121 300.564L834.576 462.622L382.344 477.88L385.523 412.39L422.701 353.943L474.659 326.8L515.474 318.062L859.121 300.564Z" fill="url(#paint0_linear_1_43)"/>
<path d="M408.529 717.13L404.612 537.858L905.25 539.602L914.338 612.326L884.209 675.809L831.585 703.855L787.82 711.887L408.529 717.13Z" fill="#08E9B3"/>
<path d="M408.529 717.13L404.612 537.858L905.25 539.602L914.338 612.326L884.209 675.809L831.585 703.855L787.82 711.887L408.529 717.13Z" fill="url(#paint1_linear_1_43)"/>
<path d="M329.164 552.364L540.721 1023.19L670.708 911.22L470.776 430.375C446.701 372.472 493.056 332.54 606.048 313.848C353.651 285.085 259.266 414.259 329.164 552.364Z" fill="#08E9B3"/>
<path d="M329.164 552.364L540.721 1023.19L670.708 911.22L470.776 430.375C446.701 372.472 493.056 332.54 606.048 313.848C353.651 285.085 259.266 414.259 329.164 552.364Z" stroke="#08E9B3" stroke-linecap="round" stroke-linejoin="round"/>
<path d="M329.164 552.364L540.721 1023.19L670.708 911.22L470.776 430.375C446.701 372.472 493.056 332.54 606.048 313.848C353.651 285.085 259.266 414.259 329.164 552.364Z" stroke="#172A5A" stroke-opacity="0.2" stroke-linecap="round" stroke-linejoin="round"/>
<path d="M952.417 459.051L709.333 3.567L586.434 122.509L818.526 588.63C846.475 644.76 802.647 687.176 690.631 712.406C945.498 726.131 1031.58 592.191 952.417 459.051Z" fill="#08E9B3"/>
<path d="M952.417 459.051L709.333 3.567L586.434 122.509L818.526 588.63C846.475 644.76 802.647 687.176 690.631 712.406C945.498 726.131 1031.58 592.191 952.417 459.051Z" stroke="#08E9B3" stroke-linecap="round" stroke-linejoin="round"/>
<path d="M952.417 459.051L709.333 3.567L586.434 122.509L818.526 588.63C846.475 644.76 802.647 687.176 690.631 712.406C945.498 726.131 1031.58 592.191 952.417 459.051Z" stroke="#172A5A" stroke-opacity="0.2" stroke-linecap="round" stroke-linejoin="round"/>
<defs>
<linearGradient id="paint0_linear_1_43" x1="513.067" y1="276.099" x2="742.252" y2="542.152" gradientUnits="userSpaceOnUse">
<stop stop-color="#0F0E24"/>
<stop offset="1" stop-opacity="0"/>
</linearGradient>
<linearGradient id="paint1_linear_1_43" x1="798.592" y1="758.669" x2="497.701" y2="447.767" gradientUnits="userSpaceOnUse">
<stop stop-color="#0F0E24"/>
<stop offset="1" stop-opacity="0"/>
</linearGradient>
</defs>
</svg>
