<svg width="478" height="400" viewBox="0 0 478 400" fill="none" xmlns="http://www.w3.org/2000/svg">
<path d="M439 200C439 310.457 349.457 400 239 400C128.543 400 39 310.457 39 200C39 89.5431 128.543 0 239 0C349.457 0 439 89.5431 439 200ZM52.1488 200C52.1488 303.195 135.805 386.851 239 386.851C342.195 386.851 425.851 303.195 425.851 200C425.851 96.805 342.195 13.1488 239 13.1488C135.805 13.1488 52.1488 96.805 52.1488 200Z" fill="#219653"/>
<path d="M419 200C419 299.411 338.411 380 239 380C139.589 380 59 299.411 59 200C59 100.589 139.589 20 239 20C338.411 20 419 100.589 419 200ZM63.3693 200C63.3693 296.998 142.002 375.631 239 375.631C335.998 375.631 414.631 296.998 414.631 200C414.631 103.002 335.998 24.3693 239 24.3693C142.002 24.3693 63.3693 103.002 63.3693 200Z" fill="#219653"/>
<path d="M366 199.5C366 269.364 309.14 326 239 326C168.86 326 112 269.364 112 199.5C112 129.636 168.86 73 239 73C309.14 73 366 129.636 366 199.5ZM119.673 199.5C119.673 265.143 173.098 318.357 239 318.357C304.902 318.357 358.327 265.143 358.327 199.5C358.327 133.857 304.902 80.643 239 80.643C173.098 80.643 119.673 133.857 119.673 199.5Z" fill="#219653"/>
<rect width="471" height="84" transform="translate(0 214.697) rotate(-13.7183)" fill="#08E9B3"/>
<rect y="214.697" width="471" height="84" transform="rotate(-13.7183 0 214.697)" fill="#219653"/>
<path d="M47.5166 274.124L37.272 276.624L41.8436 227.596L54.1637 224.589L80.7896 266.001L70.545 268.502L50.7027 236.382L50.3494 236.469L47.5166 274.124ZM42.5376 256.506L66.7361 250.599L68.5578 258.062L44.3593 263.969L42.5376 256.506ZM101.866 226.723C101.255 224.986 100.159 223.787 98.5785 223.128C96.9983 222.469 95.0601 222.419 92.7639 222.98C91.2037 223.361 89.9402 223.903 88.9735 224.607C88.0032 225.296 87.3244 226.093 86.9372 226.999C86.5647 227.901 86.4971 228.838 86.7342 229.809C86.9024 230.626 87.2441 231.291 87.7594 231.805C88.2895 232.315 88.9395 232.71 89.7097 232.99C90.4763 233.255 91.3333 233.443 92.2808 233.555C93.2247 233.652 94.2167 233.691 95.2568 233.671L99.5564 233.651C101.637 233.611 103.591 233.758 105.419 234.091C107.247 234.425 108.896 234.981 110.365 235.761C111.835 236.541 113.078 237.579 114.096 238.874C115.129 240.166 115.883 241.752 116.358 243.633C117.018 246.404 116.897 248.975 115.995 251.348C115.104 253.702 113.485 255.759 111.138 257.517C108.802 259.257 105.794 260.576 102.114 261.474C98.4637 262.365 95.1478 262.582 92.1664 262.125C89.1996 261.663 86.6906 260.521 84.6391 258.698C82.5987 256.857 81.1447 254.319 80.277 251.084L89.5281 248.825C90.0013 250.316 90.7445 251.476 91.7578 252.305C92.7823 253.115 94.005 253.62 95.4261 253.819C96.8583 254 98.3986 253.889 100.047 253.486C101.666 253.091 103.015 252.513 104.092 251.75C105.184 250.985 105.959 250.102 106.416 249.101C106.874 248.1 106.97 247.055 106.704 245.966C106.456 244.95 105.946 244.17 105.173 243.626C104.416 243.078 103.403 242.701 102.137 242.496C100.885 242.286 99.386 242.184 97.6404 242.189L92.415 242.155C88.3763 242.158 85.0123 241.443 82.3229 240.01C79.6335 238.576 77.8884 236.187 77.0875 232.842C76.4044 230.108 76.5491 227.538 77.5216 225.133C78.5088 222.724 80.1576 220.63 82.4679 218.849C84.7782 217.069 87.582 215.776 90.8791 214.971C94.2351 214.152 97.3044 214.011 100.087 214.548C102.884 215.082 105.232 216.201 107.129 217.906C109.027 219.61 110.327 221.804 111.029 224.487L101.866 226.723ZM142.607 216.778C141.996 215.04 140.9 213.842 139.32 213.182C137.74 212.523 135.801 212.474 133.505 213.034C131.945 213.415 130.681 213.958 129.715 214.661C128.744 215.351 128.066 216.148 127.678 217.054C127.306 217.955 127.238 218.892 127.475 219.864C127.644 220.68 127.985 221.346 128.501 221.859C129.031 222.369 129.681 222.764 130.451 223.044C131.217 223.309 132.074 223.498 133.022 223.61C133.966 223.707 134.958 223.745 135.998 223.725L140.298 223.705C142.378 223.665 144.332 223.812 146.16 224.146C147.988 224.479 149.637 225.036 151.106 225.816C152.576 226.596 153.819 227.633 154.838 228.929C155.87 230.221 156.624 231.807 157.099 233.687C157.76 236.458 157.639 239.03 156.736 241.403C155.845 243.757 154.226 245.813 151.879 247.571C149.543 249.311 146.535 250.63 142.855 251.529C139.205 252.42 135.889 252.637 132.908 252.179C129.941 251.718 127.432 250.576 125.38 248.753C123.34 246.911 121.886 244.373 121.018 241.138L130.269 238.88C130.742 240.371 131.486 241.531 132.499 242.359C133.523 243.17 134.746 243.675 136.167 243.874C137.599 244.054 139.14 243.943 140.788 243.541C142.407 243.146 143.756 242.567 144.833 241.805C145.925 241.039 146.7 240.156 147.157 239.156C147.615 238.155 147.711 237.11 147.445 236.021C147.197 235.005 146.687 234.225 145.914 233.68C145.157 233.132 144.145 232.756 142.878 232.55C141.626 232.341 140.127 232.239 138.382 232.244L133.156 232.21C129.117 232.213 125.753 231.498 123.064 230.064C120.375 228.631 118.63 226.242 117.829 222.897C117.146 220.163 117.29 217.593 118.263 215.188C119.25 212.779 120.899 210.684 123.209 208.904C125.519 207.123 128.323 205.83 131.62 205.026C134.976 204.206 138.046 204.065 140.828 204.603C143.625 205.136 145.973 206.255 147.871 207.96C149.768 209.665 151.068 211.858 151.77 214.541L142.607 216.778ZM165.204 197.482L176.242 242.7L166.682 245.034L155.644 199.816L165.204 197.482ZM206.621 202.859C206.05 201.86 205.384 201.017 204.623 200.329C203.859 199.627 203.002 199.087 202.052 198.711C201.114 198.316 200.092 198.09 198.986 198.032C197.895 197.971 196.731 198.091 195.495 198.393C193.184 198.957 191.292 200.027 189.821 201.603C188.365 203.175 187.418 205.176 186.982 207.607C186.542 210.022 186.707 212.805 187.476 215.955C188.245 219.105 189.377 221.667 190.873 223.641C192.369 225.616 194.134 226.97 196.17 227.706C198.202 228.426 200.41 228.495 202.794 227.913C204.958 227.385 206.712 226.552 208.056 225.412C209.411 224.255 210.321 222.871 210.785 221.26C211.265 219.646 211.269 217.875 210.798 215.947L212.811 215.759L201.154 218.605L199.397 211.407L218.318 206.788L219.709 212.485C220.679 216.459 220.674 220.079 219.693 223.344C218.708 226.594 216.933 229.351 214.366 231.616C211.796 233.865 208.612 235.453 204.814 236.38C200.575 237.415 196.623 237.39 192.958 236.304C189.289 235.203 186.135 233.142 183.495 230.121C180.866 227.082 178.969 223.178 177.805 218.409C176.91 214.744 176.642 211.347 177.001 208.218C177.372 205.071 178.277 202.261 179.716 199.789C181.156 197.316 183.029 195.245 185.335 193.574C187.641 191.904 190.288 190.704 193.276 189.975C195.837 189.35 198.313 189.143 200.704 189.355C203.092 189.552 205.304 190.119 207.342 191.056C209.395 191.99 211.194 193.258 212.74 194.862C214.282 196.451 215.48 198.326 216.336 200.488L206.621 202.859ZM258.19 174.784L269.228 220.001L260.97 222.017L234.351 198.359L234.019 198.44L240.967 226.9L231.407 229.234L220.368 184.016L228.758 181.968L255.218 205.641L255.616 205.544L248.674 177.107L258.19 174.784ZM266.088 172.855L277.879 169.977L297.747 197.318L298.277 197.189L303.314 163.768L315.104 160.89L326.142 206.108L316.869 208.372L309.684 178.94L309.309 179.032L304.738 211.099L298.423 212.64L279.564 186.176L279.188 186.268L286.4 215.809L277.127 218.073L266.088 172.855ZM334.018 204.185L322.98 158.967L353.449 151.53L355.373 159.412L334.465 164.516L337.095 175.29L356.436 170.569L358.36 178.451L339.019 183.173L341.655 193.969L362.652 188.843L364.576 196.726L334.018 204.185ZM398.871 140.442L409.909 185.659L401.652 187.675L375.032 164.017L374.701 164.098L381.648 192.558L372.088 194.892L361.05 149.674L369.44 147.626L395.9 171.299L396.297 171.202L389.355 142.764L398.871 140.442ZM406.972 146.816L405.048 138.934L442.185 129.868L444.109 137.75L430.265 141.13L439.379 178.465L429.929 180.772L420.815 143.437L406.972 146.816Z" fill="white"/>
</svg>
